<svg width="300" height="300" viewBox="0 0 300 300" fill="none" xmlns="http://www.w3.org/2000/svg">
<path d="M150 254.167C92.4688 254.167 45.8333 207.531 45.8333 150C45.8333 92.4688 92.4688 45.8333 150 45.8333C207.531 45.8333 254.167 92.4688 254.167 150C254.167 207.531 207.531 254.167 150 254.167ZM150 233.333C172.101 233.333 193.298 224.554 208.926 208.926C224.554 193.298 233.333 172.101 233.333 150C233.333 127.899 224.554 106.702 208.926 91.0744C193.298 75.4464 172.101 66.6667 150 66.6667C127.899 66.6667 106.702 75.4464 91.0744 91.0744C75.4464 106.702 66.6667 127.899 66.6667 150C66.6667 172.101 75.4464 193.298 91.0744 208.926C106.702 224.554 127.899 233.333 150 233.333V233.333ZM139.583 191.667H108.333V108.333H139.583V87.5H160.417V108.333H170.833C175.67 108.333 180.41 109.68 184.524 112.223C188.638 114.765 191.963 118.403 194.126 122.729C196.289 127.054 197.204 131.897 196.77 136.714C196.335 141.53 194.568 146.131 191.667 150C194.568 153.869 196.335 158.47 196.77 163.286C197.204 168.103 196.289 172.946 194.126 177.271C191.963 181.597 188.638 185.235 184.524 187.777C180.41 190.32 175.67 191.667 170.833 191.667H160.417V212.5H139.583V191.667ZM129.167 160.417V170.833H170.833C172.215 170.833 173.539 170.285 174.516 169.308C175.493 168.331 176.042 167.006 176.042 165.625C176.042 164.244 175.493 162.919 174.516 161.942C173.539 160.965 172.215 160.417 170.833 160.417H129.167ZM129.167 129.167V139.583H170.833C172.215 139.583 173.539 139.035 174.516 138.058C175.493 137.081 176.042 135.756 176.042 134.375C176.042 132.994 175.493 131.669 174.516 130.692C173.539 129.715 172.215 129.167 170.833 129.167H129.167Z" fill="url(#paint0_radial)"/>
<g clip-path="url(#clip0)">
<g filter="url(#filter0_d)">
<mask id="path-2-inside-1" fill="white">
<path d="M141.656 275.156C140.072 267.633 133.809 257.822 125.672 257.677C124.997 257.695 124.322 257.742 123.633 257.742C73.9265 257.742 33.5859 210.774 33.5859 152.859C33.5859 115.894 50.0249 83.4375 74.8405 64.7766L80.578 78.075C84.2577 79.8516 89.789 79.9969 95.4515 78.1922L138.455 18.2391L63.4546 3.85315C58.0077 6.3094 54.1687 10.0641 52.8374 13.7485L59.9202 30.1782C24.3093 55.3078 0.492115 100.819 0.492115 152.85C0.492115 229.955 52.7109 292.833 118.195 296.138C128.151 296.142 144.464 288.605 141.633 275.152"/>
</mask>
<path d="M141.656 275.156C140.072 267.633 133.809 257.822 125.672 257.677C124.997 257.695 124.322 257.742 123.633 257.742C73.9265 257.742 33.5859 210.774 33.5859 152.859C33.5859 115.894 50.0249 83.4375 74.8405 64.7766L80.578 78.075C84.2577 79.8516 89.789 79.9969 95.4515 78.1922L138.455 18.2391L63.4546 3.85315C58.0077 6.3094 54.1687 10.0641 52.8374 13.7485L59.9202 30.1782C24.3093 55.3078 0.492115 100.819 0.492115 152.85C0.492115 229.955 52.7109 292.833 118.195 296.138C128.151 296.142 144.464 288.605 141.633 275.152" fill="url(#paint1_linear)"/>
<path d="M125.672 257.677L125.69 256.677L125.667 256.676L125.644 256.677L125.672 257.677ZM74.8405 64.7766L75.7587 64.3805L75.2553 63.2135L74.2395 63.9774L74.8405 64.7766ZM80.578 78.075L79.6599 78.4712L79.8075 78.8135L80.1433 78.9756L80.578 78.075ZM95.4515 78.1922L95.7551 79.145L96.0709 79.0444L96.2641 78.7751L95.4515 78.1922ZM138.455 18.2391L139.267 18.8219L140.178 17.5515L138.643 17.257L138.455 18.2391ZM63.4546 3.85315L63.643 2.87105L63.3321 2.81142L63.0435 2.94155L63.4546 3.85315ZM52.8374 13.7485L51.8969 13.4086L51.7624 13.7809L51.9191 14.1443L52.8374 13.7485ZM59.9202 30.1782L60.4968 30.9952L61.1598 30.5274L60.8385 29.7823L59.9202 30.1782ZM118.195 296.138L118.145 297.136L118.17 297.138L118.195 297.138L118.195 296.138ZM142.635 274.95C141.811 271.037 139.781 266.557 136.896 263.018C134.021 259.49 130.172 256.757 125.69 256.677L125.654 258.676C129.309 258.742 132.66 260.986 135.346 264.282C138.023 267.565 139.917 271.752 140.678 275.362L142.635 274.95ZM125.644 256.677C124.905 256.698 124.312 256.742 123.633 256.742V258.742C124.331 258.742 125.088 258.693 125.7 258.676L125.644 256.677ZM123.633 256.742C74.6163 256.742 34.5859 210.37 34.5859 152.859H32.5859C32.5859 211.177 73.2366 258.742 123.633 258.742V256.742ZM34.5859 152.859C34.5859 116.183 50.8966 84.0332 75.4416 65.5758L74.2395 63.9774C49.1532 82.8418 32.5859 115.605 32.5859 152.859H34.5859ZM73.9224 65.1727L79.6599 78.4712L81.4962 77.6789L75.7587 64.3805L73.9224 65.1727ZM80.1433 78.9756C84.1226 80.8968 89.9336 81.0004 95.7551 79.145L95.1478 77.2394C89.6444 78.9934 84.3929 78.8064 81.0128 77.1745L80.1433 78.9756ZM96.2641 78.7751L139.267 18.8219L137.642 17.6562L94.6389 77.6094L96.2641 78.7751ZM138.643 17.257L63.643 2.87105L63.2662 4.83525L138.266 19.2212L138.643 17.257ZM63.0435 2.94155C57.4457 5.46588 53.3505 9.38584 51.8969 13.4086L53.7779 14.0883C54.9869 10.7423 58.5698 7.15292 63.8657 4.76475L63.0435 2.94155ZM51.9191 14.1443L59.0019 30.574L60.8385 29.7823L53.7557 13.3526L51.9191 14.1443ZM59.3437 29.3611C23.4449 54.6939 -0.507885 100.522 -0.507885 152.85H1.49212C1.49212 101.115 25.1737 55.9218 60.4968 30.9952L59.3437 29.3611ZM-0.507885 152.85C-0.507885 230.352 52.0032 293.798 118.145 297.136L118.246 295.139C53.4185 291.867 1.49212 229.557 1.49212 152.85H-0.507885ZM118.195 297.138C123.377 297.14 130.15 295.194 135.292 291.504C140.46 287.796 144.136 282.19 142.611 274.946L140.654 275.358C141.961 281.567 138.896 286.456 134.126 289.879C129.332 293.319 122.969 295.14 118.196 295.138L118.195 297.138Z" fill="black" mask="url(#path-2-inside-1)"/>
</g>
<g filter="url(#filter1_d)">
<mask id="path-4-inside-2" fill="white">
<path d="M158.348 24.8485C159.951 32.3672 166.176 42.1782 174.333 42.3188C175.012 42.3094 175.678 42.2625 176.372 42.2625C226.092 42.2625 266.419 89.2313 266.419 147.145C266.419 184.116 249.961 216.567 225.145 235.233L219.403 221.934C215.751 220.158 210.211 220.022 204.548 221.817L161.526 281.77L236.573 296.152C242.016 293.695 245.841 289.945 247.186 286.256L240.108 269.822C275.714 244.716 299.531 199.181 299.531 147.15C299.531 70.0453 247.294 7.16721 181.828 3.86253C171.867 3.85315 155.541 11.3907 158.391 24.8485"/>
</mask>
<path d="M158.348 24.8485C159.951 32.3672 166.176 42.1782 174.333 42.3188C175.012 42.3094 175.678 42.2625 176.372 42.2625C226.092 42.2625 266.419 89.2313 266.419 147.145C266.419 184.116 249.961 216.567 225.145 235.233L219.403 221.934C215.751 220.158 210.211 220.022 204.548 221.817L161.526 281.77L236.573 296.152C242.016 293.695 245.841 289.945 247.186 286.256L240.108 269.822C275.714 244.716 299.531 199.181 299.531 147.15C299.531 70.0453 247.294 7.16721 181.828 3.86253C171.867 3.85315 155.541 11.3907 158.391 24.8485" fill="url(#paint2_linear)"/>
<path d="M174.333 42.3188L174.316 43.3186L174.331 43.3189L174.347 43.3187L174.333 42.3188ZM225.145 235.233L224.227 235.629L224.731 236.796L225.746 236.032L225.145 235.233ZM219.403 221.934L220.321 221.538L220.174 221.197L219.841 221.035L219.403 221.934ZM204.548 221.817L204.246 220.864L203.93 220.964L203.736 221.234L204.548 221.817ZM161.526 281.77L160.714 281.187L159.802 282.458L161.338 282.752L161.526 281.77ZM236.573 296.152L236.385 297.134L236.696 297.193L236.985 297.063L236.573 296.152ZM247.186 286.256L248.125 286.599L248.261 286.226L248.104 285.861L247.186 286.256ZM240.108 269.822L239.531 269.005L238.868 269.472L239.189 270.217L240.108 269.822ZM299.531 147.15H300.531H299.531ZM181.828 3.86253L181.878 2.8638L181.854 2.86255L181.829 2.86253L181.828 3.86253ZM157.37 25.057C158.204 28.9649 160.227 33.4437 163.108 36.9818C165.979 40.5087 169.824 43.2412 174.316 43.3186L174.35 41.3189C170.685 41.2557 167.34 39.0125 164.659 35.7191C161.987 32.4368 160.096 28.2508 159.326 24.6399L157.37 25.057ZM174.347 43.3187C174.702 43.3138 175.053 43.2991 175.385 43.2864C175.723 43.2735 176.046 43.2625 176.372 43.2625V41.2625C176.004 41.2625 175.648 41.2749 175.309 41.2879C174.965 41.301 174.644 41.3144 174.319 41.3189L174.347 43.3187ZM176.372 43.2625C225.402 43.2625 265.419 89.635 265.419 147.145H267.419C267.419 88.8275 226.782 41.2625 176.372 41.2625V43.2625ZM265.419 147.145C265.419 183.826 249.09 215.971 224.544 234.434L225.746 236.032C250.832 217.163 267.419 184.405 267.419 147.145H265.419ZM226.063 234.836L220.321 221.538L218.485 222.331L224.227 235.629L226.063 234.836ZM219.841 221.035C215.886 219.111 210.064 219.019 204.246 220.864L204.851 222.77C210.358 221.024 215.617 221.204 218.966 222.834L219.841 221.035ZM203.736 221.234L160.714 281.187L162.339 282.353L205.361 222.4L203.736 221.234ZM161.338 282.752L236.385 297.134L236.762 295.169L161.715 280.788L161.338 282.752ZM236.985 297.063C242.58 294.538 246.658 290.623 248.125 286.599L246.246 285.914C245.023 289.268 241.452 292.853 236.162 295.24L236.985 297.063ZM248.104 285.861L241.026 269.426L239.189 270.217L246.267 286.652L248.104 285.861ZM240.684 270.639C276.579 245.33 300.531 199.478 300.531 147.15H298.531C298.531 198.885 274.849 244.102 239.531 269.005L240.684 270.639ZM300.531 147.15C300.531 69.6477 248.001 6.20166 181.878 2.8638L181.778 4.86126C246.586 8.13277 298.531 70.443 298.531 147.15H300.531ZM181.829 2.86253C176.644 2.85765 169.867 4.80237 164.722 8.49273C159.553 12.2009 155.878 17.8089 157.412 25.0556L159.369 24.6413C158.054 18.4302 161.117 13.5405 165.888 10.1179C170.684 6.67737 177.051 4.85803 181.827 4.86253L181.829 2.86253Z" fill="black" mask="url(#path-4-inside-2)"/>
</g>
</g>
<defs>
<filter id="filter0_d" x="-3.50788" y="3.85315" width="149.466" height="300.284" filterUnits="userSpaceOnUse" color-interpolation-filters="sRGB">
<feFlood flood-opacity="0" result="BackgroundImageFix"/>
<feColorMatrix in="SourceAlpha" type="matrix" values="0 0 0 0 0 0 0 0 0 0 0 0 0 0 0 0 0 0 127 0" result="hardAlpha"/>
<feOffset dy="4"/>
<feGaussianBlur stdDeviation="2"/>
<feComposite in2="hardAlpha" operator="out"/>
<feColorMatrix type="matrix" values="0 0 0 0 0 0 0 0 0 0 0 0 0 0 0 0 0 0 0.25 0"/>
<feBlend mode="normal" in2="BackgroundImageFix" result="effect1_dropShadow"/>
<feBlend mode="normal" in="SourceGraphic" in2="effect1_dropShadow" result="shape"/>
</filter>
<filter id="filter1_d" x="154.062" y="3.86252" width="149.47" height="300.289" filterUnits="userSpaceOnUse" color-interpolation-filters="sRGB">
<feFlood flood-opacity="0" result="BackgroundImageFix"/>
<feColorMatrix in="SourceAlpha" type="matrix" values="0 0 0 0 0 0 0 0 0 0 0 0 0 0 0 0 0 0 127 0" result="hardAlpha"/>
<feOffset dy="4"/>
<feGaussianBlur stdDeviation="2"/>
<feComposite in2="hardAlpha" operator="out"/>
<feColorMatrix type="matrix" values="0 0 0 0 0 0 0 0 0 0 0 0 0 0 0 0 0 0 0.25 0"/>
<feBlend mode="normal" in2="BackgroundImageFix" result="effect1_dropShadow"/>
<feBlend mode="normal" in="SourceGraphic" in2="effect1_dropShadow" result="shape"/>
</filter>
<radialGradient id="paint0_radial" cx="0" cy="0" r="1" gradientUnits="userSpaceOnUse" gradientTransform="translate(150 150) rotate(90) scale(104.167)">
<stop stop-color="#091833"/>
<stop offset="1" stop-color="#0ABDC6" stop-opacity="0"/>
</radialGradient>
<linearGradient id="paint1_linear" x1="71.225" y1="3.85315" x2="71.225" y2="296.138" gradientUnits="userSpaceOnUse">
<stop stop-color="#0ABDC6"/>
<stop offset="1" stop-color="#711C91"/>
</linearGradient>
<linearGradient id="paint2_linear" x1="228.796" y1="3.86252" x2="228.796" y2="296.152" gradientUnits="userSpaceOnUse">
<stop stop-color="#0ABDC6"/>
<stop offset="1" stop-color="#711C91"/>
</linearGradient>
<clipPath id="clip0">
<rect width="300" height="300" fill="white"/>
</clipPath>
</defs>
</svg>
